<svg id="Layer_1" data-name="Layer 1" xmlns="http://www.w3.org/2000/svg" viewBox="0 0 483.78 145.84"><defs><style>.cls-1{fill:#0;}</style></defs><path class="cls-1" d="M447.89,249.76a11.3,11.3,0,0,1-.86,4.49,10,10,0,0,1-2.33,3.4,10.19,10.19,0,0,1-3.49,2.15,13.06,13.06,0,0,1-8.78,0,10.42,10.42,0,0,1-3.52-2.15,9.86,9.86,0,0,1-2.33-3.4,11.66,11.66,0,0,1-.83-4.49v-17.4h4.89v17.21A9.74,9.74,0,0,0,431,252a5.85,5.85,0,0,0,1,2.11,5.28,5.28,0,0,0,1.91,1.52,7.69,7.69,0,0,0,5.86,0,5.25,5.25,0,0,0,1.9-1.52,5.69,5.69,0,0,0,1-2.11,9.28,9.28,0,0,0,.31-2.39V232.36h4.9Z" transform="translate(-187.5 -211.5)"/><path class="cls-1" d="M473.75,238.81a6.25,6.25,0,0,0-2.83-2.15,9.3,9.3,0,0,0-3.42-.68,9.56,9.56,0,0,0-3.88.77,9,9,0,0,0-3,2.14,9.57,9.57,0,0,0-1.95,3.18,11.37,11.37,0,0,0-.68,4,12,12,0,0,0,.67,4.11,9.23,9.23,0,0,0,1.88,3.21,8.39,8.39,0,0,0,2.93,2.07,9.48,9.48,0,0,0,3.85.74,8.54,8.54,0,0,0,3.92-.87A7.63,7.63,0,0,0,474,253l3.92,2.75a12.59,12.59,0,0,1-4.47,3.56,14.19,14.19,0,0,1-6.17,1.26,16,16,0,0,1-5.93-1.07,13.4,13.4,0,0,1-7.67-7.57,15.47,15.47,0,0,1-1.08-5.88,15,15,0,0,1,1.14-6,13.27,13.27,0,0,1,3.15-4.52,14,14,0,0,1,4.72-2.88,16.88,16.88,0,0,1,5.9-1,15.86,15.86,0,0,1,2.76.26,14.08,14.08,0,0,1,2.76.77A13.35,13.35,0,0,1,475.5,234a7.81,7.81,0,0,1,2,1.86Z" transform="translate(-187.5 -211.5)"/><path class="cls-1" d="M481.13,232.36h9.75a21.87,21.87,0,0,1,5.4.7,14.13,14.13,0,0,1,4.89,2.31,12.2,12.2,0,0,1,3.54,4.24,14.09,14.09,0,0,1,1.36,6.5,13.37,13.37,0,0,1-1.36,6.22,12.79,12.79,0,0,1-3.54,4.27,14.84,14.84,0,0,1-4.89,2.47,19.13,19.13,0,0,1-5.4.79h-9.75Zm9,23.23a16.52,16.52,0,0,0,3.81-.45,9.87,9.87,0,0,0,3.44-1.51,8,8,0,0,0,2.5-2.89,9.78,9.78,0,0,0,1-4.63,10.36,10.36,0,0,0-1-4.81,7.73,7.73,0,0,0-2.5-2.92,9.55,9.55,0,0,0-3.44-1.43,19,19,0,0,0-3.81-.39H486v19Z" transform="translate(-187.5 -211.5)"/><path class="cls-1" d="M426,270.18h4.9v27.5H426Z" transform="translate(-187.5 -211.5)"/><path class="cls-1" d="M437.13,270.18h6.49l12.77,20.59h.08V270.18h4.89v27.5h-6.21l-13-21.24H442v21.24h-4.89Z" transform="translate(-187.5 -211.5)"/><path class="cls-1" d="M467.62,270.18h6.48l12.78,20.59H487V270.18h4.89v27.5h-6.21l-13.05-21.24h-.08v21.24h-4.89Z" transform="translate(-187.5 -211.5)"/><path class="cls-1" d="M496.78,283.85a15.36,15.36,0,0,1,1.11-6,13.08,13.08,0,0,1,3.07-4.52,13.76,13.76,0,0,1,4.66-2.88,16.73,16.73,0,0,1,5.88-1,17.08,17.08,0,0,1,6,1,13.94,13.94,0,0,1,4.7,2.88,12.83,12.83,0,0,1,3.08,4.52,15.36,15.36,0,0,1,1.11,6,15.19,15.19,0,0,1-1.11,5.89,13.45,13.45,0,0,1-3.08,4.58,14,14,0,0,1-4.7,3,16.22,16.22,0,0,1-6,1.07,15.89,15.89,0,0,1-5.88-1.07,13.86,13.86,0,0,1-4.66-3,13.72,13.72,0,0,1-3.07-4.58A15.19,15.19,0,0,1,496.78,283.85Zm5.33,0a11.49,11.49,0,0,0,.68,4.06,9.48,9.48,0,0,0,1.94,3.21,8.92,8.92,0,0,0,3,2.11,9.34,9.34,0,0,0,3.82.76,9.52,9.52,0,0,0,3.85-.76,8.91,8.91,0,0,0,3-2.11,9.48,9.48,0,0,0,1.94-3.21,11.72,11.72,0,0,0,.68-4.06,11.36,11.36,0,0,0-.68-4,9.56,9.56,0,0,0-1.92-3.18,9,9,0,0,0-3-2.14,9.45,9.45,0,0,0-3.89-.77,9.27,9.27,0,0,0-3.86.77,9,9,0,0,0-3,2.14,9.56,9.56,0,0,0-1.92,3.18A11.13,11.13,0,0,0,502.11,283.85Z" transform="translate(-187.5 -211.5)"/><path class="cls-1" d="M527.39,270.18h5.48l7.57,21.17h.15l7.66-21.17h5.28l-11,27.5h-4.24Z" transform="translate(-187.5 -211.5)"/><path class="cls-1" d="M563.82,270.18h4.23l11.85,27.5h-5.59l-2.57-6.29H559.82l-2.49,6.29h-5.47Zm6.21,17L565.8,276l-4.31,11.18Z" transform="translate(-187.5 -211.5)"/><path class="cls-1" d="M586,274.46h-8.43v-4.28h21.75v4.28h-8.43v23.22H586Z" transform="translate(-187.5 -211.5)"/><path class="cls-1" d="M602.74,270.18h4.89v27.5h-4.89Z" transform="translate(-187.5 -211.5)"/><path class="cls-1" d="M612.56,283.85a15.36,15.36,0,0,1,1.11-6,13.08,13.08,0,0,1,3.07-4.52,13.67,13.67,0,0,1,4.66-2.88,16.73,16.73,0,0,1,5.88-1,17,17,0,0,1,5.94,1,13.84,13.84,0,0,1,4.7,2.88,13,13,0,0,1,3.09,4.52,15.36,15.36,0,0,1,1.11,6,15.19,15.19,0,0,1-1.11,5.89,13.62,13.62,0,0,1-3.09,4.58,13.94,13.94,0,0,1-4.7,3,16.13,16.13,0,0,1-5.94,1.07,15.89,15.89,0,0,1-5.88-1.07,13.58,13.58,0,0,1-7.73-7.57A15.19,15.19,0,0,1,612.56,283.85Zm5.32,0a11.72,11.72,0,0,0,.68,4.06,9.48,9.48,0,0,0,1.94,3.21,8.92,8.92,0,0,0,3,2.11,10.06,10.06,0,0,0,7.67,0,8.81,8.81,0,0,0,3-2.11,9.51,9.51,0,0,0,2-3.21,11.72,11.72,0,0,0,.68-4.06,11.36,11.36,0,0,0-.68-4,9.75,9.75,0,0,0-1.93-3.18,8.75,8.75,0,0,0-3-2.14,9.4,9.4,0,0,0-3.88-.77,9.27,9.27,0,0,0-3.86.77,8.9,8.9,0,0,0-3,2.14,9.73,9.73,0,0,0-1.92,3.18A11.36,11.36,0,0,0,617.88,283.85Z" transform="translate(-187.5 -211.5)"/><path class="cls-1" d="M647.05,270.18h6.49l12.77,20.59h.08V270.18h4.9v27.5h-6.22L652,276.44h-.08v21.24h-4.89Z" transform="translate(-187.5 -211.5)"/><path class="cls-1" d="M434.6,308h4.24l11.84,27.5h-5.59l-2.56-6.29H430.6l-2.48,6.29h-5.48Zm6.22,17-4.23-11.18L432.27,325Z" transform="translate(-187.5 -211.5)"/><path class="cls-1" d="M472.74,314.45a6.34,6.34,0,0,0-2.83-2.16,9.5,9.5,0,0,0-3.42-.68,9.4,9.4,0,0,0-3.88.78,9,9,0,0,0-3,2.14,9.45,9.45,0,0,0-1.94,3.18,11.13,11.13,0,0,0-.68,4,12.24,12.24,0,0,0,.66,4.12,9.18,9.18,0,0,0,1.88,3.2,8.38,8.38,0,0,0,2.93,2.08,9.65,9.65,0,0,0,3.85.74,8.54,8.54,0,0,0,3.92-.87,7.83,7.83,0,0,0,2.76-2.31l3.92,2.75a12.59,12.59,0,0,1-4.47,3.56,14.19,14.19,0,0,1-6.17,1.26,16,16,0,0,1-5.92-1.07,13.38,13.38,0,0,1-7.68-7.57,15.56,15.56,0,0,1-1.08-5.89,15,15,0,0,1,1.14-6,13.41,13.41,0,0,1,3.15-4.52,14,14,0,0,1,4.72-2.88,16.88,16.88,0,0,1,5.9-1,15.86,15.86,0,0,1,2.76.26,13.42,13.42,0,0,1,2.76.77,13.59,13.59,0,0,1,2.48,1.3,7.85,7.85,0,0,1,2,1.87Z" transform="translate(-187.5 -211.5)"/><path class="cls-1" d="M490.64,308h4.23l11.84,27.5h-5.59l-2.56-6.29H486.64l-2.49,6.29h-5.48Zm6.21,17-4.23-11.18L488.31,325Z" transform="translate(-187.5 -211.5)"/><path class="cls-1" d="M509.63,308h9.75a21.85,21.85,0,0,1,5.39.7,14.09,14.09,0,0,1,4.9,2.31,12.07,12.07,0,0,1,3.53,4.24,13.93,13.93,0,0,1,1.36,6.5A13.25,13.25,0,0,1,533.2,328a12.74,12.74,0,0,1-3.53,4.27,14.77,14.77,0,0,1-4.9,2.46,19.13,19.13,0,0,1-5.39.8h-9.75Zm9,23.23a16.52,16.52,0,0,0,3.81-.45,10,10,0,0,0,3.43-1.51,8.19,8.19,0,0,0,2.51-2.9,9.83,9.83,0,0,0,1-4.62,10.46,10.46,0,0,0-1-4.81,7.84,7.84,0,0,0-2.51-2.92,9.16,9.16,0,0,0-3.43-1.43,19,19,0,0,0-3.81-.39h-4.08v19Z" transform="translate(-187.5 -211.5)"/><path class="cls-1" d="M539.49,308h18.22v4.27H544.39v7H557v4.11H544.39v7.77h14v4.35H539.49Z" transform="translate(-187.5 -211.5)"/><path class="cls-1" d="M563.38,308H571l7.15,19.54h.11L585.36,308h7.69v27.5H588.2V313.4h-.08l-8.35,22.1h-3.42l-8.23-22.1H568v22.1h-4.66Z" transform="translate(-187.5 -211.5)"/><path class="cls-1" d="M606,323.58,595.61,308h6l6.91,11.58,7-11.58h5.67l-10.33,15.58V335.5H606Z" transform="translate(-187.5 -211.5)"/><path class="cls-1" d="M242.76,357.08H187.5V213.54h55.26Zm-49-6h42.84V219.49H193.71Z" transform="translate(-187.5 -211.5)"/><path class="cls-1" d="M408.47,357.34H255.75L332.11,211.5Zm-142.89-6H398.64l-66.53-127Z" transform="translate(-187.5 -211.5)"/><path class="cls-1" d="M447.89,249.76a11.3,11.3,0,0,1-.86,4.49,10,10,0,0,1-2.33,3.4,10.19,10.19,0,0,1-3.49,2.15,13.06,13.06,0,0,1-8.78,0,10.42,10.42,0,0,1-3.52-2.15,9.86,9.86,0,0,1-2.33-3.4,11.66,11.66,0,0,1-.83-4.49v-17.4h4.89v17.21A9.74,9.74,0,0,0,431,252a5.85,5.85,0,0,0,1,2.11,5.28,5.28,0,0,0,1.91,1.52,7.69,7.69,0,0,0,5.86,0,5.25,5.25,0,0,0,1.9-1.52,5.69,5.69,0,0,0,1-2.11,9.28,9.28,0,0,0,.31-2.39V232.36h4.9Z" transform="translate(-187.5 -211.5)"/><path class="cls-1" d="M473.75,238.81a6.25,6.25,0,0,0-2.83-2.15,9.3,9.3,0,0,0-3.42-.68,9.56,9.56,0,0,0-3.88.77,9,9,0,0,0-3,2.14,9.57,9.57,0,0,0-1.95,3.18,11.37,11.37,0,0,0-.68,4,12,12,0,0,0,.67,4.11,9.23,9.23,0,0,0,1.88,3.21,8.39,8.39,0,0,0,2.93,2.07,9.48,9.48,0,0,0,3.85.74,8.54,8.54,0,0,0,3.92-.87A7.63,7.63,0,0,0,474,253l3.92,2.75a12.59,12.59,0,0,1-4.47,3.56,14.19,14.19,0,0,1-6.17,1.26,16,16,0,0,1-5.93-1.07,13.4,13.4,0,0,1-7.67-7.57,15.47,15.47,0,0,1-1.08-5.88,15,15,0,0,1,1.14-6,13.27,13.27,0,0,1,3.15-4.52,14,14,0,0,1,4.72-2.88,16.88,16.88,0,0,1,5.9-1,15.86,15.86,0,0,1,2.76.26,14.08,14.08,0,0,1,2.76.77A13.35,13.35,0,0,1,475.5,234a7.81,7.81,0,0,1,2,1.86Z" transform="translate(-187.5 -211.5)"/><path class="cls-1" d="M481.13,232.36h9.75a21.87,21.87,0,0,1,5.4.7,14.13,14.13,0,0,1,4.89,2.31,12.2,12.2,0,0,1,3.54,4.24,14.09,14.09,0,0,1,1.36,6.5,13.37,13.37,0,0,1-1.36,6.22,12.79,12.79,0,0,1-3.54,4.27,14.84,14.84,0,0,1-4.89,2.47,19.13,19.13,0,0,1-5.4.79h-9.75Zm9,23.23a16.52,16.52,0,0,0,3.81-.45,9.87,9.87,0,0,0,3.44-1.51,8,8,0,0,0,2.5-2.89,9.78,9.78,0,0,0,1-4.63,10.36,10.36,0,0,0-1-4.81,7.73,7.73,0,0,0-2.5-2.92,9.55,9.55,0,0,0-3.44-1.43,19,19,0,0,0-3.81-.39H486v19Z" transform="translate(-187.5 -211.5)"/><path class="cls-1" d="M426,270.18h4.9v27.5H426Z" transform="translate(-187.5 -211.5)"/><path class="cls-1" d="M437.13,270.18h6.49l12.77,20.59h.08V270.18h4.89v27.5h-6.21l-13-21.24H442v21.24h-4.89Z" transform="translate(-187.5 -211.5)"/><path class="cls-1" d="M467.62,270.18h6.48l12.78,20.59H487V270.18h4.89v27.5h-6.21l-13.05-21.24h-.08v21.24h-4.89Z" transform="translate(-187.5 -211.5)"/><path class="cls-1" d="M496.78,283.85a15.36,15.36,0,0,1,1.11-6,13.08,13.08,0,0,1,3.07-4.52,13.76,13.76,0,0,1,4.66-2.88,16.73,16.73,0,0,1,5.88-1,17.08,17.08,0,0,1,6,1,13.94,13.94,0,0,1,4.7,2.88,12.83,12.83,0,0,1,3.08,4.52,15.36,15.36,0,0,1,1.11,6,15.19,15.19,0,0,1-1.11,5.89,13.45,13.45,0,0,1-3.08,4.58,14,14,0,0,1-4.7,3,16.22,16.22,0,0,1-6,1.07,15.89,15.89,0,0,1-5.88-1.07,13.86,13.86,0,0,1-4.66-3,13.72,13.72,0,0,1-3.07-4.58A15.19,15.19,0,0,1,496.78,283.85Zm5.33,0a11.49,11.49,0,0,0,.68,4.06,9.48,9.48,0,0,0,1.94,3.21,8.92,8.92,0,0,0,3,2.11,9.34,9.34,0,0,0,3.82.76,9.52,9.52,0,0,0,3.85-.76,8.91,8.91,0,0,0,3-2.11,9.48,9.48,0,0,0,1.94-3.21,11.72,11.72,0,0,0,.68-4.06,11.36,11.36,0,0,0-.68-4,9.56,9.56,0,0,0-1.92-3.18,9,9,0,0,0-3-2.14,9.45,9.45,0,0,0-3.89-.77,9.27,9.27,0,0,0-3.86.77,9,9,0,0,0-3,2.14,9.56,9.56,0,0,0-1.92,3.18A11.13,11.13,0,0,0,502.11,283.85Z" transform="translate(-187.5 -211.5)"/><path class="cls-1" d="M527.39,270.18h5.48l7.57,21.17h.15l7.66-21.17h5.28l-11,27.5h-4.24Z" transform="translate(-187.5 -211.5)"/><path class="cls-1" d="M563.82,270.18h4.23l11.85,27.5h-5.59l-2.57-6.29H559.82l-2.49,6.29h-5.47Zm6.21,17L565.8,276l-4.31,11.18Z" transform="translate(-187.5 -211.5)"/><path class="cls-1" d="M586,274.46h-8.43v-4.28h21.75v4.28h-8.43v23.22H586Z" transform="translate(-187.5 -211.5)"/><path class="cls-1" d="M602.74,270.18h4.89v27.5h-4.89Z" transform="translate(-187.5 -211.5)"/><path class="cls-1" d="M612.56,283.85a15.36,15.36,0,0,1,1.11-6,13.08,13.08,0,0,1,3.07-4.52,13.67,13.67,0,0,1,4.66-2.88,16.73,16.73,0,0,1,5.88-1,17,17,0,0,1,5.94,1,13.84,13.84,0,0,1,4.7,2.88,13,13,0,0,1,3.09,4.52,15.36,15.36,0,0,1,1.11,6,15.19,15.19,0,0,1-1.11,5.89,13.62,13.62,0,0,1-3.09,4.58,13.94,13.94,0,0,1-4.7,3,16.13,16.13,0,0,1-5.94,1.07,15.89,15.89,0,0,1-5.88-1.07,13.58,13.58,0,0,1-7.73-7.57A15.19,15.19,0,0,1,612.56,283.85Zm5.32,0a11.72,11.72,0,0,0,.68,4.06,9.48,9.48,0,0,0,1.94,3.21,8.92,8.92,0,0,0,3,2.11,10.06,10.06,0,0,0,7.67,0,8.81,8.81,0,0,0,3-2.11,9.51,9.51,0,0,0,2-3.21,11.72,11.72,0,0,0,.68-4.06,11.36,11.36,0,0,0-.68-4,9.75,9.75,0,0,0-1.93-3.18,8.75,8.75,0,0,0-3-2.14,9.4,9.4,0,0,0-3.88-.77,9.27,9.27,0,0,0-3.86.77,8.9,8.9,0,0,0-3,2.14,9.73,9.73,0,0,0-1.92,3.18A11.36,11.36,0,0,0,617.88,283.85Z" transform="translate(-187.5 -211.5)"/><path class="cls-1" d="M647.05,270.18h6.49l12.77,20.59h.08V270.18h4.9v27.5h-6.22L652,276.44h-.08v21.24h-4.89Z" transform="translate(-187.5 -211.5)"/><path class="cls-1" d="M434.6,308h4.24l11.84,27.5h-5.59l-2.56-6.29H430.6l-2.48,6.29h-5.48Zm6.22,17-4.23-11.18L432.27,325Z" transform="translate(-187.5 -211.5)"/><path class="cls-1" d="M472.74,314.45a6.34,6.34,0,0,0-2.83-2.16,9.5,9.5,0,0,0-3.42-.68,9.4,9.4,0,0,0-3.88.78,9,9,0,0,0-3,2.14,9.45,9.45,0,0,0-1.94,3.18,11.13,11.13,0,0,0-.68,4,12.24,12.24,0,0,0,.66,4.12,9.18,9.18,0,0,0,1.88,3.2,8.38,8.38,0,0,0,2.93,2.08,9.65,9.65,0,0,0,3.85.74,8.54,8.54,0,0,0,3.92-.87,7.83,7.83,0,0,0,2.76-2.31l3.92,2.75a12.59,12.59,0,0,1-4.47,3.56,14.19,14.19,0,0,1-6.17,1.26,16,16,0,0,1-5.92-1.07,13.38,13.38,0,0,1-7.68-7.57,15.56,15.56,0,0,1-1.08-5.89,15,15,0,0,1,1.14-6,13.41,13.41,0,0,1,3.15-4.52,14,14,0,0,1,4.72-2.88,16.88,16.88,0,0,1,5.9-1,15.86,15.86,0,0,1,2.76.26,13.42,13.42,0,0,1,2.76.77,13.59,13.59,0,0,1,2.48,1.3,7.85,7.85,0,0,1,2,1.87Z" transform="translate(-187.5 -211.5)"/><path class="cls-1" d="M490.64,308h4.23l11.84,27.5h-5.59l-2.56-6.29H486.64l-2.49,6.29h-5.48Zm6.21,17-4.23-11.18L488.31,325Z" transform="translate(-187.5 -211.5)"/><path class="cls-1" d="M509.63,308h9.75a21.85,21.85,0,0,1,5.39.7,14.09,14.09,0,0,1,4.9,2.31,12.07,12.07,0,0,1,3.53,4.24,13.93,13.93,0,0,1,1.36,6.5A13.25,13.25,0,0,1,533.2,328a12.74,12.74,0,0,1-3.53,4.27,14.77,14.77,0,0,1-4.9,2.46,19.13,19.13,0,0,1-5.39.8h-9.75Zm9,23.23a16.52,16.52,0,0,0,3.81-.45,10,10,0,0,0,3.43-1.51,8.19,8.19,0,0,0,2.51-2.9,9.83,9.83,0,0,0,1-4.62,10.46,10.46,0,0,0-1-4.81,7.84,7.84,0,0,0-2.51-2.92,9.16,9.16,0,0,0-3.43-1.43,19,19,0,0,0-3.81-.39h-4.08v19Z" transform="translate(-187.5 -211.5)"/><path class="cls-1" d="M539.49,308h18.22v4.27H544.39v7H557v4.11H544.39v7.77h14v4.35H539.49Z" transform="translate(-187.5 -211.5)"/><path class="cls-1" d="M563.38,308H571l7.15,19.54h.11L585.36,308h7.69v27.5H588.2V313.4h-.08l-8.35,22.1h-3.42l-8.23-22.1H568v22.1h-4.66Z" transform="translate(-187.5 -211.5)"/><path class="cls-1" d="M606,323.58,595.61,308h6l6.91,11.58,7-11.58h5.67l-10.33,15.58V335.5H606Z" transform="translate(-187.5 -211.5)"/></svg>